<svg width="18" height="18" viewBox="0 0 18 18" fill="none" xmlns="http://www.w3.org/2000/svg">
<path d="M1.05 18C0.75 18 0.5 17.9 0.3 17.7C0.0999999 17.5 0 17.25 0 16.95V12.9C0 12.6667 0.0749999 12.4623 0.225 12.287C0.375 12.1123 0.566667 12 0.8 11.95L4.25 11.25C4.48333 11.2167 4.721 11.2373 4.963 11.312C5.20433 11.3873 5.4 11.5 5.55 11.65L7.9 14C9.16667 13.2333 10.3293 12.325 11.388 11.275C12.446 10.225 13.325 9.1 14.025 7.9L11.6 5.45C11.45 5.3 11.354 5.129 11.312 4.937C11.2707 4.74567 11.2667 4.53333 11.3 4.3L11.95 0.8C11.9833 0.566667 12.0917 0.375 12.275 0.225C12.4583 0.0749999 12.6667 0 12.9 0H16.95C17.25 0 17.5 0.0999999 17.7 0.3C17.9 0.5 18 0.75 18 1.05C18 3.2 17.5207 5.29567 16.562 7.337C15.604 9.379 14.3373 11.1873 12.762 12.762C11.1873 14.3373 9.37933 15.604 7.338 16.562C5.296 17.5207 3.2 18 1.05 18ZM14.975 6C15.2583 5.35 15.475 4.69167 15.625 4.025C15.775 3.35833 15.8917 2.68333 15.975 2H13.75L13.325 4.35L14.975 6ZM6.025 14.95L4.35 13.275L2 13.75V15.95C2.68333 15.9 3.36267 15.7917 4.038 15.625C4.71267 15.4583 5.375 15.2333 6.025 14.95Z" fill="#26221F"/>
</svg>
